<?xml version="1.0" encoding="UTF-8" standalone="no"?>
<svg
   viewBox="0 0 182.41809 182.41817"
   width="182.41809"
   height="182.41817"
   version="1.1"
   id="svg78"
   xmlns="http://www.w3.org/2000/svg"
   xmlns:svg="http://www.w3.org/2000/svg">
  <desc
     id="desc1">prelab_1_top_part.dxf - scale = 1.000000, origin = (0.000000, 0.000000), method = manual</desc>
  <defs
     id="defs4">
    <linearGradient
       id="swatch94">
      <stop
         style="stop-color:#000000;stop-opacity:1;"
         offset="0"
         id="stop94" />
    </linearGradient>
  </defs>
  <g
     id="g70"
     transform="translate(-30.790954,-25.310614)">
    <path
       d="m 146.29261,49.346 a 9.44882,9.44882 0 0 0 -18.89764,0 9.44882,9.44882 0 0 0 18.89764,0 z"
       style="vector-effect:non-scaling-stroke;fill:none;stroke:#ff0000;stroke-width:1;stroke-dasharray:none;stroke-opacity:1;-inkscape-stroke:hairline"
       id="path42" />
    <path
       d="m 74.26365,64.1191 a 3.77953,3.77953 0 0 0 -7.55906,0 3.77953,3.77953 0 0 0 7.55906,0 z"
       style="vector-effect:non-scaling-stroke;fill:none;stroke:#ff0000;stroke-width:1;stroke-dasharray:none;stroke-opacity:1;-inkscape-stroke:hairline"
       id="path43" />
    <path
       d="M 94.92108,158.737 A 8.990837,8.990837 0 0 0 83.06984,153.0332"
       style="vector-effect:non-scaling-stroke;fill:none;stroke:#ff0000;stroke-width:1;stroke-dasharray:none;stroke-opacity:1;-inkscape-stroke:hairline"
       id="path44" />
    <path
       d="m 62.30494,121.758 a 11.338585,11.338585 0 0 0 -22.67717,0 11.338585,11.338585 0 0 0 22.67717,0 z"
       style="vector-effect:non-scaling-stroke;fill:none;stroke:#ff0000;stroke-width:1;stroke-dasharray:none;stroke-opacity:1;-inkscape-stroke:hairline"
       id="path45" />
    <path
       d="m 158.74823,97.2486 a 16.320695,16.320695 0 0 0 -10.65766,11.5647"
       style="vector-effect:non-scaling-stroke;fill:none;stroke:#ff0000;stroke-width:1;stroke-dasharray:none;stroke-opacity:1;-inkscape-stroke:hairline"
       id="path46" />
    <path
       d="m 67.65024,153.0332 a 21.218769,21.218769 0 0 0 15.4196,0"
       style="vector-effect:non-scaling-stroke;fill:none;stroke:#ff0000;stroke-width:1;stroke-dasharray:none;stroke-opacity:1;-inkscape-stroke:hairline"
       id="path47" />
    <path
       d="m 122,116.5197 a 15.757055,15.757055 0 0 0 26.09057,-7.7064"
       style="vector-effect:non-scaling-stroke;fill:none;stroke:#ff0000;stroke-width:1;stroke-dasharray:none;stroke-opacity:1;-inkscape-stroke:hairline"
       id="path48" />
    <path
       d="m 70.59811,138.0671 a 7.748394,7.748394 0 0 0 -2.94787,14.9661"
       style="vector-effect:non-scaling-stroke;fill:none;stroke:#ff0000;stroke-width:1;stroke-dasharray:none;stroke-opacity:1;-inkscape-stroke:hairline"
       id="path49" />
    <path
       d="m 122,116.5197 a 19.730855,19.730855 0 0 0 -32.69116,9.7349"
       style="vector-effect:non-scaling-stroke;fill:none;stroke:#ff0000;stroke-width:1;stroke-dasharray:none;stroke-opacity:1;-inkscape-stroke:hairline"
       id="path50" />
    <path
       d="m 70.59811,138.0671 a 10.378975,10.378975 0 0 0 8.25304,-16.8973"
       style="vector-effect:non-scaling-stroke;fill:none;stroke:#ff0000;stroke-width:1;stroke-dasharray:none;stroke-opacity:1;-inkscape-stroke:hairline"
       id="path51" />
    <path
       d="m 89.30884,126.2546 a 14.549236,14.549236 0 0 0 14.33296,17.9705"
       style="vector-effect:non-scaling-stroke;fill:none;stroke:#ff0000;stroke-width:1;stroke-dasharray:none;stroke-opacity:1;-inkscape-stroke:hairline"
       id="path52" />
    <path
       d="M 78.85115,121.1698 A 78.590447,78.590447 0 0 0 59.6778,104.0968"
       style="vector-effect:non-scaling-stroke;fill:none;stroke:#ff0000;stroke-width:1;stroke-dasharray:none;stroke-opacity:1;-inkscape-stroke:hairline"
       id="path53" />
    <path
       d="m 115.9258,97.2486 a 9.230555,9.230555 0 0 0 15.84875,-3.3561"
       style="vector-effect:non-scaling-stroke;fill:none;stroke:#ff0000;stroke-width:1;stroke-dasharray:none;stroke-opacity:1;-inkscape-stroke:hairline"
       id="path54" />
    <path
       d="m 111.56909,67.8799 a 27.879763,27.879763 0 0 0 4.35671,29.3687"
       style="vector-effect:non-scaling-stroke;fill:none;stroke:#ff0000;stroke-width:1;stroke-dasharray:none;stroke-opacity:1;-inkscape-stroke:hairline"
       id="path55" />
    <path
       d="M 67.65024,82.738 A 18.833272,18.833272 0 0 0 89.30884,63.5515"
       style="vector-effect:non-scaling-stroke;fill:none;stroke:#ff0000;stroke-width:1;stroke-dasharray:none;stroke-opacity:1;-inkscape-stroke:hairline"
       id="path56" />
    <path
       d="M 158.74823,97.2486 A 13.49748,13.49748 0 1 0 146.85903,73.2958"
       style="vector-effect:non-scaling-stroke;fill:none;stroke:#ff0000;stroke-width:1;stroke-dasharray:none;stroke-opacity:1;-inkscape-stroke:hairline"
       id="path57" />
    <path
       d="m 200.45946,119.6585 a 15.118111,15.118111 0 0 0 -30.23622,0 15.118111,15.118111 0 0 0 30.23622,0 z"
       style="vector-effect:non-scaling-stroke;fill:none;stroke:#ff0000;stroke-width:1;stroke-dasharray:none;stroke-opacity:1;-inkscape-stroke:hairline"
       id="path58" />
    <path
       d="m 146.85903,162.8656 a 26.877918,26.877918 0 0 0 18.53062,-9.8324"
       style="vector-effect:non-scaling-stroke;fill:none;stroke:#ff0000;stroke-width:1;stroke-dasharray:none;stroke-opacity:1;-inkscape-stroke:hairline"
       id="path59" />
    <path
       d="M 111.56909,67.8799 A 11.624344,11.624344 0 1 0 89.30884,63.5515"
       style="vector-effect:non-scaling-stroke;fill:none;stroke:#ff0000;stroke-width:1;stroke-dasharray:none;stroke-opacity:1;-inkscape-stroke:hairline"
       id="path60" />
    <path
       d="m 130.40127,133.1849 a 7.5590555,7.5590555 0 0 0 -15.11811,0 7.5590555,7.5590555 0 0 0 15.11811,0 z"
       style="vector-effect:non-scaling-stroke;fill:none;stroke:#ff0000;stroke-width:1;stroke-dasharray:none;stroke-opacity:1;-inkscape-stroke:hairline"
       id="path61" />
    <path
       d="m 94.92108,158.737 a 10.959509,10.959509 0 0 0 11.41569,7.6603"
       style="vector-effect:non-scaling-stroke;fill:none;stroke:#ff0000;stroke-width:1;stroke-dasharray:none;stroke-opacity:1;-inkscape-stroke:hairline"
       id="path62" />
    <path
       d="M 131.77455,153.0332 A 47.340037,47.340037 0 0 0 103.6418,144.2251"
       style="vector-effect:non-scaling-stroke;fill:none;stroke:#ff0000;stroke-width:1;stroke-dasharray:none;stroke-opacity:1;-inkscape-stroke:hairline"
       id="path63" />
    <path
       d="M 146.85903,73.2958 A 38.20244,38.20244 0 0 0 131.77455,93.8925"
       style="vector-effect:non-scaling-stroke;fill:none;stroke:#ff0000;stroke-width:1;stroke-dasharray:none;stroke-opacity:1;-inkscape-stroke:hairline"
       id="path64" />
    <path
       style="vector-effect:non-scaling-stroke;fill:none;stroke:#ff0000;stroke-width:1;stroke-dasharray:none;stroke-opacity:1;-inkscape-stroke:hairline"
       d="m 106.3368,166.4 40.5222,-3.53"
       id="path65" />
    <path
       d="M 120.03519,25.832322 A 90.708661,90.708661 0 0 0 123.96481,207.20708 90.708661,90.708661 0 0 0 120.03519,25.832322 Z"
       style="vector-effect:non-scaling-stroke;fill:none;stroke:#ff0000;stroke-width:1;stroke-dasharray:none;stroke-opacity:1;-inkscape-stroke:hairline"
       id="path66" />
    <path
       d="m 131.77455,153.0332 a 7.153681,7.153681 0 0 0 11.26867,-6.5944"
       style="vector-effect:non-scaling-stroke;fill:none;stroke:#ff0000;stroke-width:1;stroke-dasharray:none;stroke-opacity:1;-inkscape-stroke:hairline"
       id="path67" />
    <path
       d="m 165.38965,153.0332 a 12.622117,12.622117 0 1 0 -22.34643,-6.5944"
       style="vector-effect:non-scaling-stroke;fill:none;stroke:#ff0000;stroke-width:1;stroke-dasharray:none;stroke-opacity:1;-inkscape-stroke:hairline"
       id="path69" />
    <path
       d="M 67.65024,82.738 A 11.645831,11.645831 0 0 0 59.6778,104.0968"
       style="vector-effect:non-scaling-stroke;fill:none;stroke:#ff0000;stroke-width:1;stroke-dasharray:none;stroke-opacity:1;-inkscape-stroke:hairline"
       id="path70" />
    <path
       style="font-size:23.8213px;line-height:0;font-family:Dhurjati;-inkscape-font-specification:'Dhurjati, Normal';text-align:center;text-anchor:middle;vector-effect:non-scaling-stroke;fill:none;fill-opacity:1;stroke:#0000ff;stroke-width:0.886874;stroke-dasharray:none;stroke-opacity:1;-inkscape-stroke:hairline"
       d="m 177.36677,188.47299 -6.4247,4.52504 -6.60624,-9.37961 6.4247,-4.52504 0.88293,1.2536 -4.27567,3.01143 1.76587,2.5072 3.35786,-2.365 0.88293,1.2536 -3.35785,2.365 2.19157,3.11162 4.27567,-3.01144 z"
       transform="matrix(1,0,0,1.2713827,0,-66.666297)"
       id="path88" />
    <path
       style="font-size:23.8213px;line-height:0;font-family:Dhurjati;-inkscape-font-specification:'Dhurjati, Normal';text-align:center;text-anchor:middle;vector-effect:non-scaling-stroke;fill:none;fill-opacity:1;stroke:#0000ff;stroke-width:0.886874;stroke-dasharray:none;stroke-opacity:1;-inkscape-stroke:hairline"
       d="m 164.97432,185.05045 -2.73118,1.51125 4.81216,8.69664 -2.3239,1.28589 -4.81215,-8.69664 -2.73118,1.51126 -0.74237,-1.34163 7.78624,-4.3084 z"
       transform="matrix(1,0,0,1.2713827,0,-66.666297)"
       id="path87" />
    <path
       style="font-size:23.8213px;line-height:0;font-family:Dhurjati;-inkscape-font-specification:'Dhurjati, Normal';text-align:center;text-anchor:middle;vector-effect:non-scaling-stroke;fill:none;fill-opacity:1;stroke:#0000ff;stroke-width:0.886874;stroke-dasharray:none;stroke-opacity:1;-inkscape-stroke:hairline"
       d="m 158.09962,199.74659 -4.72199,-10.45574 2.39558,-1.08189 4.722,10.45574 z"
       transform="matrix(1,0,0,1.2713827,0,-66.666297)"
       id="path86" />
    <path
       style="font-size:23.8213px;line-height:0;font-family:Dhurjati;-inkscape-font-specification:'Dhurjati, Normal';text-align:center;text-anchor:middle;vector-effect:non-scaling-stroke;fill:none;fill-opacity:1;stroke:#0000ff;stroke-width:0.886874;stroke-dasharray:none;stroke-opacity:1;-inkscape-stroke:hairline"
       d="m 142.57855,205.21591 -10.0178,1.84158 -0.32673,-1.77735 q -0.0594,-0.32315 0.004,-0.58532 0.12197,-0.24514 0.36434,-0.2897 0.29622,-0.0545 0.51443,0.0725 0.23524,0.0681 0.27484,0.28355 0.0347,0.18851 -0.0703,0.37484 -0.16375,0.1693 -0.2984,0.19405 0.0198,0.10772 0.14732,0.19564 0.13247,0.11484 0.29405,0.0851 l 7.64799,-1.40594 q 0.2693,-0.0495 0.40117,-0.24079 0.16376,-0.1693 0.1192,-0.41166 l -0.75742,-4.12023 q -0.0693,-0.37701 -0.3392,-0.63363 -0.29187,-0.22474 -0.61503,-0.16534 l -6.92089,1.27228 q -0.16158,0.0297 -0.28138,0.13525 -0.0489,0.0368 -0.0539,0.01 0.10772,-0.0198 0.25722,0.0362 0.20831,0.0731 0.23801,0.23464 0.0446,0.24237 -0.0554,0.45563 -0.1588,0.19623 -0.37424,0.23583 -0.26929,0.0495 -0.47047,-0.13622 -0.28197,-0.17089 -0.33643,-0.46711 l -0.77723,-4.22794 q -0.0941,-0.51166 0.31642,-1.00472 0.39344,-0.43424 1.03975,-0.55305 l 9.77543,-1.79703 0.32673,1.77735 q 0.0545,0.29622 -0.009,0.55839 -0.12198,0.24514 -0.33741,0.28474 -0.2693,0.0495 -0.50949,-0.0455 -0.26712,-0.0901 -0.30672,-0.30553 -0.0396,-0.21544 0.17801,-0.39464 0.19068,-0.17425 0.35226,-0.20396 -0.0148,-0.0808 -0.11544,-0.17365 -0.13742,-0.14178 -0.299,-0.11207 l -7.21712,1.32673 q -0.2693,0.0495 -0.45008,0.27761 -0.13683,0.16436 -0.0923,0.40672 l 0.40594,2.20823 6.67853,-1.22773 q 0.86175,-0.15841 1.59221,0.18058 0.70354,0.34394 0.83721,1.07104 l 0.87128,4.7396 q 0.12377,0.67324 -0.29384,1.27896 -0.47641,0.58869 -1.31122,0.74216 z"
       transform="matrix(1,0,0,1.2713827,0,-66.666297)"
       id="path85" />
    <path
       style="font-size:23.8213px;line-height:0;font-family:Dhurjati;-inkscape-font-specification:'Dhurjati, Normal';text-align:center;text-anchor:middle;vector-effect:non-scaling-stroke;fill:none;fill-opacity:1;stroke:#0000ff;stroke-width:0.886874;stroke-dasharray:none;stroke-opacity:1;-inkscape-stroke:hairline"
       d="m 121.86096,207.49001 q -0.41065,0.007 -0.79807,-0.23302 -0.38743,-0.23994 -0.39434,-0.6506 -0.005,-0.30115 0.21026,-0.52385 0.18795,-0.22224 0.46172,-0.22685 0.21901,-0.004 0.41342,0.15735 0.13826,0.0798 0.14195,0.29884 9.2e-4,0.0548 -0.052,0.16519 l -0.0274,4.6e-4 q 0.16426,-0.003 0.40742,-0.19855 0.24317,-0.19579 0.2381,-0.49694 l -0.12904,-7.66554 -2.10803,0.0355 -0.0295,-1.75212 q 0.10582,-0.22086 0.26824,-0.33313 0.18887,-0.16749 0.38051,-0.17072 0.52016,-0.009 0.52846,0.48403 0.009,0.52016 -0.4019,0.52707 l 0.001,0.0821 q 0.68442,-0.0115 1.27888,-0.48707 0.53971,-0.47463 0.60847,-1.26994 l 2.02589,-0.0341 0.17744,10.54012 q 0.005,0.30115 0.19993,0.48956 0.24962,0.18749 0.19487,0.18841 0.27607,0.13228 0.19302,0.0789 -0.0575,-0.16334 -0.0589,-0.24547 -0.004,-0.21902 0.15919,-0.30392 0.13412,-0.16656 0.35313,-0.17025 0.30115,-0.005 0.52339,0.18288 0.22224,0.18796 0.22593,0.40697 0.007,0.43803 -0.34346,0.74517 -0.35083,0.30714 -0.78886,0.31451 l -3.86015,0.065 z"
       transform="matrix(1,0,0,1.2713827,0,-66.666297)"
       id="path84" />
    <path
       style="font-size:23.8213px;line-height:0;font-family:Dhurjati;-inkscape-font-specification:'Dhurjati, Normal';text-align:center;text-anchor:middle;vector-effect:non-scaling-stroke;fill:none;fill-opacity:1;stroke:#0000ff;stroke-width:0.886874;stroke-dasharray:none;stroke-opacity:1;-inkscape-stroke:hairline"
       d="m 106.93709,206.2344 q -0.40622,-0.0606 -0.74903,-0.36081 -0.34281,-0.30026 -0.28225,-0.70648 0.0444,-0.2979 0.29336,-0.48225 0.22187,-0.18839 0.49268,-0.14802 0.21666,0.0323 0.382,0.22304 0.1233,0.10143 0.091,0.31809 -0.008,0.0542 -0.0784,0.15441 l -0.0271,-0.004 q 0.16249,0.0242 0.43449,-0.12901 0.27199,-0.15323 0.3164,-0.45113 l 1.13041,-7.58283 -2.08527,-0.31086 0.25838,-1.73322 q 0.14062,-0.20051 0.31926,-0.28461 0.21379,-0.13423 0.40336,-0.10597 0.51455,0.0767 0.44188,0.56418 -0.0767,0.51455 -0.48293,0.45399 l -0.0121,0.0812 q 0.67704,0.10093 1.34146,-0.27064 0.61027,-0.37964 0.80859,-1.15289 l 2.00403,0.29875 -1.55431,10.42639 q -0.0444,0.2979 0.1169,0.51573 0.21547,0.22591 0.16131,0.21783 0.25063,0.17578 0.17746,0.10951 -0.0299,-0.17057 -0.0178,-0.25181 0.0323,-0.21665 0.2069,-0.27368 0.15963,-0.1423 0.37628,-0.11 0.2979,0.0444 0.48629,0.26628 0.18839,0.22186 0.15609,0.43852 -0.0646,0.4333 -0.46106,0.67871 -0.39647,0.24542 -0.82977,0.18082 l -3.8185,-0.56924 z"
       transform="matrix(1,0,0,1.2713827,0,-66.666297)"
       id="path83" />
    <path
       style="font-size:23.8213px;line-height:0;font-family:Dhurjati;-inkscape-font-specification:'Dhurjati, Normal';text-align:center;text-anchor:middle;vector-effect:non-scaling-stroke;fill:none;fill-opacity:1;stroke:#0000ff;stroke-width:0.886874;stroke-dasharray:none;stroke-opacity:1;-inkscape-stroke:hairline"
       d="m 94.424589,203.0203 -7.379602,-2.70078 3.942949,-10.77371 7.379602,2.70078 -0.526981,1.43993 -4.911164,-1.79739 -1.053962,2.87985 3.856935,1.41155 -0.526981,1.43993 -3.856936,-1.41156 -1.308042,3.57409 4.911164,1.79739 z"
       transform="matrix(1,0,0,1.2713827,0,-66.666297)"
       id="path82" />
    <path
       style="font-size:23.8213px;line-height:0;font-family:Dhurjati;-inkscape-font-specification:'Dhurjati, Normal';text-align:center;text-anchor:middle;vector-effect:non-scaling-stroke;fill:none;fill-opacity:1;stroke:#0000ff;stroke-width:0.886874;stroke-dasharray:none;stroke-opacity:1;-inkscape-stroke:hairline"
       d="m 82.129895,187.48321 q 0.219052,-0.4415 0.634703,-0.6632 0.415651,-0.22169 0.917621,-0.24773 0.514139,-0.0506 1.09007,0.0824 0.600458,0.14509 1.164596,0.42499 l 1.64336,0.81536 q 0.564138,0.2799 1.018373,0.6581 0.454235,0.3782 0.724984,0.81819 0.307446,0.42763 0.357822,0.88055 0.0749,0.46508 -0.144148,0.90658 l -0.681495,1.37355 -2.354664,-1.16827 0.571969,-1.15281 q 0.170373,-0.34339 -0.01425,-0.64895 -0.184619,-0.30556 -0.626118,-0.52461 l -0.711305,-0.35291 q -0.466027,-0.23123 -0.821019,-0.1934 -0.354992,0.0378 -0.525366,0.38122 l -3.054556,6.15647 q -0.170374,0.34339 0.01424,0.64895 0.184619,0.30555 0.650646,0.53678 l 0.711305,0.35291 q 0.441499,0.21905 0.796491,0.18123 0.354993,-0.0378 0.525366,-0.38122 l 0.571969,-1.15281 2.354664,1.16828 -0.681495,1.37355 q -0.219051,0.4415 -0.634703,0.6632 -0.391123,0.23386 -0.92979,0.27225 -0.50197,0.026 -1.077901,-0.10688 -0.57593,-0.13292 -1.140069,-0.41282 l -1.643359,-0.81536 q -0.564138,-0.2799 -1.042901,-0.67027 -0.454235,-0.3782 -0.737153,-0.79366 -0.270749,-0.43999 -0.345653,-0.90508 -0.0749,-0.46508 0.144148,-0.90658 z"
       transform="matrix(1,0,0,1.2713827,0,-66.666297)"
       id="path81" />
    <path
       style="font-size:23.8213px;line-height:0;font-family:Dhurjati;-inkscape-font-specification:'Dhurjati, Normal';text-align:center;text-anchor:middle;vector-effect:non-scaling-stroke;fill:none;fill-opacity:1;stroke:#0000ff;stroke-width:0.886874;stroke-dasharray:none;stroke-opacity:1;-inkscape-stroke:hairline"
       d="m 76.254917,194.94254 -6.614655,-4.24253 6.193799,-9.65694 6.614656,4.24253 -0.827811,1.29067 -4.402088,-2.82343 -1.655622,2.58133 3.457137,2.21735 -0.827811,1.29067 -3.457137,-2.21735 -2.054745,3.20361 4.402088,2.82343 z"
       transform="matrix(1,0,0,1.2713827,0,-66.666297)"
       id="text78" />
  </g>
</svg>
