999
"DXF R12 Output" (www.mydxf.blogspot.com)
 0 
SECTION
 2 
HEADER
 9 
$ACADVER
 1 
AC1009
 9 
$EXTMIN
 10 
 0 
 20 
 0 
 9 
$EXTMAX
 10 
 8.5 
 20 
 11 
 0 
ENDSEC
 0 
SECTION
 2 
ENTITIES
0
POLYLINE
8
MODELSKETCH_VISIBLE
62
10
70
0
10
0.000000
20
0.000000
66
1
0
VERTEX
8
MODELSKETCH_VISIBLE
10
30.559748
20
41.905487
70
0
0
VERTEX
8
MODELSKETCH_VISIBLE
10
30.363285
20
42.878599
70
0
0
VERTEX
8
MODELSKETCH_VISIBLE
10
29.827515
20
43.673252
70
0
0
VERTEX
8
MODELSKETCH_VISIBLE
10
29.032862
20
44.209022
70
0
0
VERTEX
8
MODELSKETCH_VISIBLE
10
28.059750
20
44.405484
70
0
0
VERTEX
8
MODELSKETCH_VISIBLE
10
27.086639
20
44.209022
70
0
0
VERTEX
8
MODELSKETCH_VISIBLE
10
26.291986
20
43.673252
70
0
0
VERTEX
8
MODELSKETCH_VISIBLE
10
25.756216
20
42.878599
70
0
0
VERTEX
8
MODELSKETCH_VISIBLE
10
25.559753
20
41.905487
70
0
0
VERTEX
8
MODELSKETCH_VISIBLE
10
25.646292
20
41.253194
70
0
0
VERTEX
8
MODELSKETCH_VISIBLE
10
25.894689
20
40.655489
70
0
0
VERTEX
8
MODELSKETCH_VISIBLE
10
26.288119
20
40.141518
70
0
0
VERTEX
8
MODELSKETCH_VISIBLE
10
26.809752
20
39.740426
70
0
0
VERTEX
8
MODELSKETCH_VISIBLE
10
27.417924
20
39.489224
70
0
0
VERTEX
8
MODELSKETCH_VISIBLE
10
28.059750
20
39.405490
70
0
0
VERTEX
8
MODELSKETCH_VISIBLE
10
28.701577
20
39.489224
70
0
0
VERTEX
8
MODELSKETCH_VISIBLE
10
29.309749
20
39.740426
70
0
0
VERTEX
8
MODELSKETCH_VISIBLE
10
29.831382
20
40.141518
70
0
0
VERTEX
8
MODELSKETCH_VISIBLE
10
30.224812
20
40.655489
70
0
0
VERTEX
8
MODELSKETCH_VISIBLE
10
30.473209
20
41.253194
70
0
0
VERTEX
8
MODELSKETCH_VISIBLE
10
30.559748
20
41.905487
70
0
0
VERTEX
8
MODELSKETCH_VISIBLE
10
30.559748
20
41.905487
70
0
0
SEQEND
8
MODELSKETCH_VISIBLE
0
POLYLINE
8
MODELSKETCH_VISIBLE
62
10
70
0
10
0.000000
20
0.000000
66
1
0
VERTEX
8
MODELSKETCH_VISIBLE
10
11.502109
20
37.996776
70
0
0
VERTEX
8
MODELSKETCH_VISIBLE
10
11.368135
20
38.496776
70
0
0
VERTEX
8
MODELSKETCH_VISIBLE
10
11.002110
20
38.862801
70
0
0
VERTEX
8
MODELSKETCH_VISIBLE
10
10.502110
20
38.996776
70
0
0
VERTEX
8
MODELSKETCH_VISIBLE
10
10.002110
20
38.862801
70
0
0
VERTEX
8
MODELSKETCH_VISIBLE
10
9.636085
20
38.496776
70
0
0
VERTEX
8
MODELSKETCH_VISIBLE
10
9.502111
20
37.996776
70
0
0
VERTEX
8
MODELSKETCH_VISIBLE
10
9.636085
20
37.496776
70
0
0
VERTEX
8
MODELSKETCH_VISIBLE
10
10.002110
20
37.130751
70
0
0
VERTEX
8
MODELSKETCH_VISIBLE
10
10.502110
20
36.996777
70
0
0
VERTEX
8
MODELSKETCH_VISIBLE
10
11.002110
20
37.130751
70
0
0
VERTEX
8
MODELSKETCH_VISIBLE
10
11.368135
20
37.496776
70
0
0
VERTEX
8
MODELSKETCH_VISIBLE
10
11.502109
20
37.996776
70
0
0
VERTEX
8
MODELSKETCH_VISIBLE
10
11.502109
20
37.996776
70
0
0
SEQEND
8
MODELSKETCH_VISIBLE
0
POLYLINE
8
MODELSKETCH_VISIBLE
62
10
70
0
10
0.000000
20
0.000000
66
1
0
VERTEX
8
MODELSKETCH_VISIBLE
10
16.967714
20
12.962488
70
0
0
VERTEX
8
MODELSKETCH_VISIBLE
10
16.497283
20
13.809623
70
0
0
VERTEX
8
MODELSKETCH_VISIBLE
10
15.728042
20
14.398867
70
0
0
VERTEX
8
MODELSKETCH_VISIBLE
10
14.787627
20
14.632451
70
0
0
VERTEX
8
MODELSKETCH_VISIBLE
10
13.832077
20
14.471617
70
0
0
SEQEND
8
MODELSKETCH_VISIBLE
0
POLYLINE
8
MODELSKETCH_VISIBLE
62
10
70
0
10
0.000000
20
0.000000
66
1
0
VERTEX
8
MODELSKETCH_VISIBLE
10
8.338038
20
22.746503
70
0
0
VERTEX
8
MODELSKETCH_VISIBLE
10
8.234192
20
23.529255
70
0
0
VERTEX
8
MODELSKETCH_VISIBLE
10
7.936115
20
24.246502
70
0
0
VERTEX
8
MODELSKETCH_VISIBLE
10
7.464000
20
24.863267
70
0
0
VERTEX
8
MODELSKETCH_VISIBLE
10
6.838040
20
25.344577
70
0
0
VERTEX
8
MODELSKETCH_VISIBLE
10
6.108233
20
25.646019
70
0
0
VERTEX
8
MODELSKETCH_VISIBLE
10
5.338041
20
25.746500
70
0
0
VERTEX
8
MODELSKETCH_VISIBLE
10
4.567849
20
25.646019
70
0
0
VERTEX
8
MODELSKETCH_VISIBLE
10
3.838043
20
25.344577
70
0
0
VERTEX
8
MODELSKETCH_VISIBLE
10
3.212083
20
24.863267
70
0
0
VERTEX
8
MODELSKETCH_VISIBLE
10
2.739968
20
24.246502
70
0
0
VERTEX
8
MODELSKETCH_VISIBLE
10
2.441891
20
23.529255
70
0
0
VERTEX
8
MODELSKETCH_VISIBLE
10
2.338044
20
22.746503
70
0
0
VERTEX
8
MODELSKETCH_VISIBLE
10
2.441891
20
21.963751
70
0
0
VERTEX
8
MODELSKETCH_VISIBLE
10
2.739968
20
21.246505
70
0
0
VERTEX
8
MODELSKETCH_VISIBLE
10
3.212083
20
20.629739
70
0
0
VERTEX
8
MODELSKETCH_VISIBLE
10
3.838043
20
20.148430
70
0
0
VERTEX
8
MODELSKETCH_VISIBLE
10
4.567849
20
19.846987
70
0
0
VERTEX
8
MODELSKETCH_VISIBLE
10
5.338041
20
19.746506
70
0
0
VERTEX
8
MODELSKETCH_VISIBLE
10
6.108233
20
19.846987
70
0
0
VERTEX
8
MODELSKETCH_VISIBLE
10
6.838040
20
20.148430
70
0
0
VERTEX
8
MODELSKETCH_VISIBLE
10
7.464000
20
20.629739
70
0
0
VERTEX
8
MODELSKETCH_VISIBLE
10
7.936115
20
21.246505
70
0
0
VERTEX
8
MODELSKETCH_VISIBLE
10
8.234192
20
21.963751
70
0
0
VERTEX
8
MODELSKETCH_VISIBLE
10
8.338038
20
22.746503
70
0
0
VERTEX
8
MODELSKETCH_VISIBLE
10
8.338038
20
22.746503
70
0
0
SEQEND
8
MODELSKETCH_VISIBLE
0
POLYLINE
8
MODELSKETCH_VISIBLE
62
10
70
0
10
0.000000
20
0.000000
66
1
0
VERTEX
8
MODELSKETCH_VISIBLE
10
33.855293
20
29.231274
70
0
0
VERTEX
8
MODELSKETCH_VISIBLE
10
32.873121
20
28.756768
70
0
0
VERTEX
8
MODELSKETCH_VISIBLE
10
32.052516
20
28.063408
70
0
0
VERTEX
8
MODELSKETCH_VISIBLE
10
31.428341
20
27.189026
70
0
0
VERTEX
8
MODELSKETCH_VISIBLE
10
31.035457
20
26.171451
70
0
0
SEQEND
8
MODELSKETCH_VISIBLE
0
POLYLINE
8
MODELSKETCH_VISIBLE
62
10
70
0
10
0.000000
20
0.000000
66
1
0
VERTEX
8
MODELSKETCH_VISIBLE
10
9.752313
20
14.471617
70
0
0
VERTEX
8
MODELSKETCH_VISIBLE
10
10.758721
20
14.183837
70
0
0
VERTEX
8
MODELSKETCH_VISIBLE
10
11.792195
20
14.087911
70
0
0
VERTEX
8
MODELSKETCH_VISIBLE
10
12.825669
20
14.183837
70
0
0
VERTEX
8
MODELSKETCH_VISIBLE
10
13.832077
20
14.471617
70
0
0
SEQEND
8
MODELSKETCH_VISIBLE
0
POLYLINE
8
MODELSKETCH_VISIBLE
62
10
70
0
10
0.000000
20
0.000000
66
1
0
VERTEX
8
MODELSKETCH_VISIBLE
10
24.132336
20
24.132468
70
0
0
VERTEX
8
MODELSKETCH_VISIBLE
10
25.018579
20
23.495353
70
0
0
VERTEX
8
MODELSKETCH_VISIBLE
10
26.022559
20
23.114351
70
0
0
VERTEX
8
MODELSKETCH_VISIBLE
10
27.090536
20
23.002251
70
0
0
VERTEX
8
MODELSKETCH_VISIBLE
10
28.168766
20
23.171842
70
0
0
VERTEX
8
MODELSKETCH_VISIBLE
10
29.166100
20
23.615312
70
0
0
VERTEX
8
MODELSKETCH_VISIBLE
10
30.001772
20
24.289695
70
0
0
VERTEX
8
MODELSKETCH_VISIBLE
10
30.637614
20
25.155054
70
0
0
VERTEX
8
MODELSKETCH_VISIBLE
10
31.035457
20
26.171451
70
0
0
SEQEND
8
MODELSKETCH_VISIBLE
0
POLYLINE
8
MODELSKETCH_VISIBLE
62
10
70
0
10
0.000000
20
0.000000
66
1
0
VERTEX
8
MODELSKETCH_VISIBLE
10
10.532270
20
18.431392
70
0
0
VERTEX
8
MODELSKETCH_VISIBLE
10
9.820745
20
18.317149
70
0
0
VERTEX
8
MODELSKETCH_VISIBLE
10
9.208744
20
17.976207
70
0
0
VERTEX
8
MODELSKETCH_VISIBLE
10
8.746876
20
17.449457
70
0
0
VERTEX
8
MODELSKETCH_VISIBLE
10
8.485751
20
16.777793
70
0
0
VERTEX
8
MODELSKETCH_VISIBLE
10
8.472658
20
16.057274
70
0
0
VERTEX
8
MODELSKETCH_VISIBLE
10
8.700269
20
15.394718
70
0
0
VERTEX
8
MODELSKETCH_VISIBLE
10
9.137261
20
14.847156
70
0
0
VERTEX
8
MODELSKETCH_VISIBLE
10
9.752313
20
14.471617
70
0
0
SEQEND
8
MODELSKETCH_VISIBLE
0
POLYLINE
8
MODELSKETCH_VISIBLE
62
10
70
0
10
0.000000
20
0.000000
66
1
0
VERTEX
8
MODELSKETCH_VISIBLE
10
24.132336
20
24.132468
70
0
0
VERTEX
8
MODELSKETCH_VISIBLE
10
23.019978
20
24.931657
70
0
0
VERTEX
8
MODELSKETCH_VISIBLE
10
21.759782
20
25.408681
70
0
0
VERTEX
8
MODELSKETCH_VISIBLE
10
20.419493
20
25.547497
70
0
0
VERTEX
8
MODELSKETCH_VISIBLE
10
19.066854
20
25.332062
70
0
0
VERTEX
8
MODELSKETCH_VISIBLE
10
17.816712
20
24.772431
70
0
0
VERTEX
8
MODELSKETCH_VISIBLE
10
16.770702
20
23.923014
70
0
0
VERTEX
8
MODELSKETCH_VISIBLE
10
15.976758
20
22.834300
70
0
0
VERTEX
8
MODELSKETCH_VISIBLE
10
15.482811
20
21.556779
70
0
0
SEQEND
8
MODELSKETCH_VISIBLE
0
POLYLINE
8
MODELSKETCH_VISIBLE
62
10
70
0
10
0.000000
20
0.000000
66
1
0
VERTEX
8
MODELSKETCH_VISIBLE
10
10.532270
20
18.431392
70
0
0
VERTEX
8
MODELSKETCH_VISIBLE
10
11.309131
20
18.529667
70
0
0
VERTEX
8
MODELSKETCH_VISIBLE
10
12.013820
20
18.835509
70
0
0
VERTEX
8
MODELSKETCH_VISIBLE
10
12.606349
20
19.324420
70
0
0
VERTEX
8
MODELSKETCH_VISIBLE
10
13.046733
20
19.971903
70
0
0
VERTEX
8
MODELSKETCH_VISIBLE
10
13.286661
20
20.717293
70
0
0
VERTEX
8
MODELSKETCH_VISIBLE
10
13.307988
20
21.485193
70
0
0
VERTEX
8
MODELSKETCH_VISIBLE
10
13.115975
20
22.229005
70
0
0
VERTEX
8
MODELSKETCH_VISIBLE
10
12.715884
20
22.902131
70
0
0
SEQEND
8
MODELSKETCH_VISIBLE
0
POLYLINE
8
MODELSKETCH_VISIBLE
62
10
70
0
10
0.000000
20
0.000000
66
1
0
VERTEX
8
MODELSKETCH_VISIBLE
10
15.482811
20
21.556779
70
0
0
VERTEX
8
MODELSKETCH_VISIBLE
10
15.374882
20
20.683354
70
0
0
VERTEX
8
MODELSKETCH_VISIBLE
10
15.465813
20
19.819052
70
0
0
VERTEX
8
MODELSKETCH_VISIBLE
10
15.748236
20
18.997150
70
0
0
VERTEX
8
MODELSKETCH_VISIBLE
10
16.214782
20
18.250923
70
0
0
VERTEX
8
MODELSKETCH_VISIBLE
10
16.838566
20
17.630106
70
0
0
VERTEX
8
MODELSKETCH_VISIBLE
10
17.577078
20
17.171973
70
0
0
VERTEX
8
MODELSKETCH_VISIBLE
10
18.399514
20
16.891106
70
0
0
VERTEX
8
MODELSKETCH_VISIBLE
10
19.275068
20
16.802090
70
0
0
SEQEND
8
MODELSKETCH_VISIBLE
0
POLYLINE
8
MODELSKETCH_VISIBLE
62
10
70
0
10
0.000000
20
0.000000
66
1
0
VERTEX
8
MODELSKETCH_VISIBLE
10
12.715884
20
22.902131
70
0
0
VERTEX
8
MODELSKETCH_VISIBLE
10
10.365114
20
25.369290
70
0
0
VERTEX
8
MODELSKETCH_VISIBLE
10
7.642941
20
27.419356
70
0
0
SEQEND
8
MODELSKETCH_VISIBLE
0
POLYLINE
8
MODELSKETCH_VISIBLE
62
10
70
0
10
0.000000
20
0.000000
66
1
0
VERTEX
8
MODELSKETCH_VISIBLE
10
22.525206
20
29.231274
70
0
0
VERTEX
8
MODELSKETCH_VISIBLE
10
23.016329
20
28.794303
70
0
0
VERTEX
8
MODELSKETCH_VISIBLE
10
23.595557
20
28.507865
70
0
0
VERTEX
8
MODELSKETCH_VISIBLE
10
24.229606
20
28.383236
70
0
0
VERTEX
8
MODELSKETCH_VISIBLE
10
24.885196
20
28.431692
70
0
0
VERTEX
8
MODELSKETCH_VISIBLE
10
25.504154
20
28.653132
70
0
0
VERTEX
8
MODELSKETCH_VISIBLE
10
26.033264
20
29.024069
70
0
0
VERTEX
8
MODELSKETCH_VISIBLE
10
26.446669
20
29.520705
70
0
0
VERTEX
8
MODELSKETCH_VISIBLE
10
26.718516
20
30.119241
70
0
0
SEQEND
8
MODELSKETCH_VISIBLE
0
POLYLINE
8
MODELSKETCH_VISIBLE
62
10
70
0
10
0.000000
20
0.000000
66
1
0
VERTEX
8
MODELSKETCH_VISIBLE
10
21.372495
20
37.001732
70
0
0
VERTEX
8
MODELSKETCH_VISIBLE
10
21.018547
20
36.010717
70
0
0
VERTEX
8
MODELSKETCH_VISIBLE
10
20.811389
20
34.995043
70
0
0
VERTEX
8
MODELSKETCH_VISIBLE
10
20.828455
20
32.950298
70
0
0
VERTEX
8
MODELSKETCH_VISIBLE
10
21.405718
20
30.988655
70
0
0
VERTEX
8
MODELSKETCH_VISIBLE
10
21.898807
20
30.076859
70
0
0
VERTEX
8
MODELSKETCH_VISIBLE
10
22.525206
20
29.231274
70
0
0
SEQEND
8
MODELSKETCH_VISIBLE
0
POLYLINE
8
MODELSKETCH_VISIBLE
62
10
70
0
10
0.000000
20
0.000000
66
1
0
VERTEX
8
MODELSKETCH_VISIBLE
10
9.752313
20
33.070532
70
0
0
VERTEX
8
MODELSKETCH_VISIBLE
10
10.846830
20
33.025696
70
0
0
VERTEX
8
MODELSKETCH_VISIBLE
10
11.912436
20
33.217544
70
0
0
VERTEX
8
MODELSKETCH_VISIBLE
10
12.911476
20
33.634964
70
0
0
VERTEX
8
MODELSKETCH_VISIBLE
10
13.806298
20
34.266844
70
0
0
VERTEX
8
MODELSKETCH_VISIBLE
10
14.541486
20
35.078925
70
0
0
VERTEX
8
MODELSKETCH_VISIBLE
10
15.076348
20
36.020329
70
0
0
VERTEX
8
MODELSKETCH_VISIBLE
10
15.395314
20
37.055019
70
0
0
VERTEX
8
MODELSKETCH_VISIBLE
10
15.482811
20
38.146953
70
0
0
SEQEND
8
MODELSKETCH_VISIBLE
0
POLYLINE
8
MODELSKETCH_VISIBLE
62
10
70
0
10
0.000000
20
0.000000
66
1
0
VERTEX
8
MODELSKETCH_VISIBLE
10
33.855293
20
29.231274
70
0
0
VERTEX
8
MODELSKETCH_VISIBLE
10
34.768710
20
29.691918
70
0
0
VERTEX
8
MODELSKETCH_VISIBLE
10
35.501518
20
30.377371
70
0
0
VERTEX
8
MODELSKETCH_VISIBLE
10
36.014945
20
31.239488
70
0
0
VERTEX
8
MODELSKETCH_VISIBLE
10
36.270222
20
32.230123
70
0
0
VERTEX
8
MODELSKETCH_VISIBLE
10
36.234446
20
33.252494
70
0
0
VERTEX
8
MODELSKETCH_VISIBLE
10
35.918888
20
34.205005
70
0
0
VERTEX
8
MODELSKETCH_VISIBLE
10
35.351030
20
35.032284
70
0
0
VERTEX
8
MODELSKETCH_VISIBLE
10
34.558357
20
35.678962
70
0
0
VERTEX
8
MODELSKETCH_VISIBLE
10
33.614976
20
36.074632
70
0
0
VERTEX
8
MODELSKETCH_VISIBLE
10
32.617864
20
36.186978
70
0
0
VERTEX
8
MODELSKETCH_VISIBLE
10
31.628813
20
36.017770
70
0
0
VERTEX
8
MODELSKETCH_VISIBLE
10
30.709613
20
35.568777
70
0
0
SEQEND
8
MODELSKETCH_VISIBLE
0
POLYLINE
8
MODELSKETCH_VISIBLE
62
10
70
0
10
0.000000
20
0.000000
66
1
0
VERTEX
8
MODELSKETCH_VISIBLE
10
44.891375
20
23.301995
70
0
0
VERTEX
8
MODELSKETCH_VISIBLE
10
44.809856
20
24.107908
70
0
0
VERTEX
8
MODELSKETCH_VISIBLE
10
44.576617
20
24.858507
70
0
0
VERTEX
8
MODELSKETCH_VISIBLE
10
43.719290
20
26.129478
70
0
0
VERTEX
8
MODELSKETCH_VISIBLE
10
42.448006
20
26.986343
70
0
0
VERTEX
8
MODELSKETCH_VISIBLE
10
41.697323
20
27.219309
70
0
0
VERTEX
8
MODELSKETCH_VISIBLE
10
40.891380
20
27.300535
70
0
0
VERTEX
8
MODELSKETCH_VISIBLE
10
40.085438
20
27.219309
70
0
0
VERTEX
8
MODELSKETCH_VISIBLE
10
39.334754
20
26.986343
70
0
0
VERTEX
8
MODELSKETCH_VISIBLE
10
38.063471
20
26.129478
70
0
0
VERTEX
8
MODELSKETCH_VISIBLE
10
37.206144
20
24.858507
70
0
0
VERTEX
8
MODELSKETCH_VISIBLE
10
36.972905
20
24.107908
70
0
0
VERTEX
8
MODELSKETCH_VISIBLE
10
36.891386
20
23.301995
70
0
0
VERTEX
8
MODELSKETCH_VISIBLE
10
36.972905
20
22.496082
70
0
0
VERTEX
8
MODELSKETCH_VISIBLE
10
37.206144
20
21.745484
70
0
0
VERTEX
8
MODELSKETCH_VISIBLE
10
38.063471
20
20.474512
70
0
0
VERTEX
8
MODELSKETCH_VISIBLE
10
39.334754
20
19.617647
70
0
0
VERTEX
8
MODELSKETCH_VISIBLE
10
40.085438
20
19.384681
70
0
0
VERTEX
8
MODELSKETCH_VISIBLE
10
40.891380
20
19.303455
70
0
0
VERTEX
8
MODELSKETCH_VISIBLE
10
41.697323
20
19.384681
70
0
0
VERTEX
8
MODELSKETCH_VISIBLE
10
42.448006
20
19.617647
70
0
0
VERTEX
8
MODELSKETCH_VISIBLE
10
43.719290
20
20.474512
70
0
0
VERTEX
8
MODELSKETCH_VISIBLE
10
44.576617
20
21.745484
70
0
0
VERTEX
8
MODELSKETCH_VISIBLE
10
44.809856
20
22.496082
70
0
0
VERTEX
8
MODELSKETCH_VISIBLE
10
44.891375
20
23.301995
70
0
0
VERTEX
8
MODELSKETCH_VISIBLE
10
44.891375
20
23.301995
70
0
0
SEQEND
8
MODELSKETCH_VISIBLE
0
POLYLINE
8
MODELSKETCH_VISIBLE
62
10
70
0
10
0.000000
20
0.000000
66
1
0
VERTEX
8
MODELSKETCH_VISIBLE
10
30.709613
20
11.870131
70
0
0
VERTEX
8
MODELSKETCH_VISIBLE
10
32.114568
20
12.136883
70
0
0
VERTEX
8
MODELSKETCH_VISIBLE
10
33.425333
20
12.672805
70
0
0
VERTEX
8
MODELSKETCH_VISIBLE
10
34.603960
20
13.457761
70
0
0
VERTEX
8
MODELSKETCH_VISIBLE
10
35.612500
20
14.471617
70
0
0
SEQEND
8
MODELSKETCH_VISIBLE
0
POLYLINE
8
MODELSKETCH_VISIBLE
62
10
70
0
10
0.000000
20
0.000000
66
1
0
VERTEX
8
MODELSKETCH_VISIBLE
10
21.372495
20
37.001732
70
0
0
VERTEX
8
MODELSKETCH_VISIBLE
10
21.613429
20
37.895210
70
0
0
VERTEX
8
MODELSKETCH_VISIBLE
10
21.581029
20
38.800622
70
0
0
VERTEX
8
MODELSKETCH_VISIBLE
10
21.286527
20
39.657413
70
0
0
VERTEX
8
MODELSKETCH_VISIBLE
10
20.741158
20
40.405025
70
0
0
VERTEX
8
MODELSKETCH_VISIBLE
10
19.998278
20
40.956823
70
0
0
VERTEX
8
MODELSKETCH_VISIBLE
10
19.144059
20
41.258705
70
0
0
VERTEX
8
MODELSKETCH_VISIBLE
10
18.238960
20
41.298914
70
0
0
VERTEX
8
MODELSKETCH_VISIBLE
10
17.343437
20
41.065696
70
0
0
VERTEX
8
MODELSKETCH_VISIBLE
10
16.557658
20
40.576919
70
0
0
VERTEX
8
MODELSKETCH_VISIBLE
10
15.963556
20
39.892913
70
0
0
VERTEX
8
MODELSKETCH_VISIBLE
10
15.594238
20
39.065613
70
0
0
VERTEX
8
MODELSKETCH_VISIBLE
10
15.482811
20
38.146953
70
0
0
SEQEND
8
MODELSKETCH_VISIBLE
0
POLYLINE
8
MODELSKETCH_VISIBLE
62
10
70
0
10
0.000000
20
0.000000
66
1
0
VERTEX
8
MODELSKETCH_VISIBLE
10
26.355169
20
19.723140
70
0
0
VERTEX
8
MODELSKETCH_VISIBLE
10
26.197790
20
20.501395
70
0
0
VERTEX
8
MODELSKETCH_VISIBLE
10
25.769126
20
21.136881
70
0
0
VERTEX
8
MODELSKETCH_VISIBLE
10
25.133485
20
21.565314
70
0
0
VERTEX
8
MODELSKETCH_VISIBLE
10
24.355172
20
21.722410
70
0
0
VERTEX
8
MODELSKETCH_VISIBLE
10
23.576859
20
21.565314
70
0
0
VERTEX
8
MODELSKETCH_VISIBLE
10
22.941217
20
21.136881
70
0
0
VERTEX
8
MODELSKETCH_VISIBLE
10
22.512553
20
20.501395
70
0
0
VERTEX
8
MODELSKETCH_VISIBLE
10
22.355174
20
19.723140
70
0
0
VERTEX
8
MODELSKETCH_VISIBLE
10
22.512553
20
18.944884
70
0
0
VERTEX
8
MODELSKETCH_VISIBLE
10
22.941217
20
18.309398
70
0
0
VERTEX
8
MODELSKETCH_VISIBLE
10
23.576859
20
17.880965
70
0
0
VERTEX
8
MODELSKETCH_VISIBLE
10
24.355172
20
17.723869
70
0
0
VERTEX
8
MODELSKETCH_VISIBLE
10
25.133485
20
17.880965
70
0
0
VERTEX
8
MODELSKETCH_VISIBLE
10
25.769126
20
18.309398
70
0
0
VERTEX
8
MODELSKETCH_VISIBLE
10
26.197790
20
18.944884
70
0
0
VERTEX
8
MODELSKETCH_VISIBLE
10
26.355169
20
19.723140
70
0
0
VERTEX
8
MODELSKETCH_VISIBLE
10
26.355169
20
19.723140
70
0
0
SEQEND
8
MODELSKETCH_VISIBLE
0
POLYLINE
8
MODELSKETCH_VISIBLE
62
10
70
0
10
0.000000
20
0.000000
66
1
0
VERTEX
8
MODELSKETCH_VISIBLE
10
16.967714
20
12.962488
70
0
0
VERTEX
8
MODELSKETCH_VISIBLE
10
17.419629
20
12.080056
70
0
0
VERTEX
8
MODELSKETCH_VISIBLE
10
18.120603
20
11.416619
70
0
0
VERTEX
8
MODELSKETCH_VISIBLE
10
19.000232
20
11.019420
70
0
0
VERTEX
8
MODELSKETCH_VISIBLE
10
19.988112
20
10.935703
70
0
0
SEQEND
8
MODELSKETCH_VISIBLE
0
POLYLINE
8
MODELSKETCH_VISIBLE
62
10
70
0
10
0.000000
20
0.000000
66
1
0
VERTEX
8
MODELSKETCH_VISIBLE
10
26.718516
20
14.471617
70
0
0
VERTEX
8
MODELSKETCH_VISIBLE
10
25.014959
20
15.494288
70
0
0
VERTEX
8
MODELSKETCH_VISIBLE
10
23.182818
20
16.231015
70
0
0
VERTEX
8
MODELSKETCH_VISIBLE
10
21.257664
20
16.670661
70
0
0
VERTEX
8
MODELSKETCH_VISIBLE
10
19.275068
20
16.802090
70
0
0
SEQEND
8
MODELSKETCH_VISIBLE
0
POLYLINE
8
MODELSKETCH_VISIBLE
62
10
70
0
10
0.000000
20
0.000000
66
1
0
VERTEX
8
MODELSKETCH_VISIBLE
10
30.709613
20
35.568777
70
0
0
VERTEX
8
MODELSKETCH_VISIBLE
10
29.371390
20
34.478953
70
0
0
VERTEX
8
MODELSKETCH_VISIBLE
10
28.245372
20
33.187267
70
0
0
VERTEX
8
MODELSKETCH_VISIBLE
10
27.353700
20
31.723952
70
0
0
VERTEX
8
MODELSKETCH_VISIBLE
10
26.718516
20
30.119241
70
0
0
SEQEND
8
MODELSKETCH_VISIBLE
0
POLYLINE
8
MODELSKETCH_VISIBLE
62
10
70
0
10
0.000000
20
0.000000
66
1
0
VERTEX
8
MODELSKETCH_VISIBLE
10
19.988120
20
10.934989
70
0
0
VERTEX
8
MODELSKETCH_VISIBLE
10
30.709605
20
11.868967
70
0
0
SEQEND
8
MODELSKETCH_VISIBLE
0
POLYLINE
8
MODELSKETCH_VISIBLE
62
10
70
1
10
0.000000
20
0.000000
66
1
0
VERTEX
8
MODELSKETCH_VISIBLE
10
23.612481
20
48.126807
70
0
0
VERTEX
8
MODELSKETCH_VISIBLE
10
20.438772
20
47.846938
70
0
0
VERTEX
8
MODELSKETCH_VISIBLE
10
17.369929
20
47.160592
70
0
0
VERTEX
8
MODELSKETCH_VISIBLE
10
14.440482
20
46.088713
70
0
0
VERTEX
8
MODELSKETCH_VISIBLE
10
11.684959
20
44.652247
70
0
0
VERTEX
8
MODELSKETCH_VISIBLE
10
9.137890
20
42.872140
70
0
0
VERTEX
8
MODELSKETCH_VISIBLE
10
6.833804
20
40.769338
70
0
0
VERTEX
8
MODELSKETCH_VISIBLE
10
4.807232
20
38.364786
70
0
0
VERTEX
8
MODELSKETCH_VISIBLE
10
3.092701
20
35.679429
70
0
0
VERTEX
8
MODELSKETCH_VISIBLE
10
1.748220
20
32.790983
70
0
0
VERTEX
8
MODELSKETCH_VISIBLE
10
0.808192
20
29.790114
70
0
0
VERTEX
8
MODELSKETCH_VISIBLE
10
0.271743
20
26.717198
70
0
0
VERTEX
8
MODELSKETCH_VISIBLE
10
0.137997
20
23.612613
70
0
0
VERTEX
8
MODELSKETCH_VISIBLE
10
0.406081
20
20.516733
70
0
0
VERTEX
8
MODELSKETCH_VISIBLE
10
1.075118
20
17.469935
70
0
0
VERTEX
8
MODELSKETCH_VISIBLE
10
2.144235
20
14.512596
70
0
0
VERTEX
8
MODELSKETCH_VISIBLE
10
3.612557
20
11.685091
70
0
0
VERTEX
8
MODELSKETCH_VISIBLE
10
5.441784
20
9.076512
70
0
0
VERTEX
8
MODELSKETCH_VISIBLE
10
7.570599
20
6.761990
70
0
0
VERTEX
8
MODELSKETCH_VISIBLE
10
9.963597
20
4.760953
70
0
0
VERTEX
8
MODELSKETCH_VISIBLE
10
12.585375
20
3.092833
70
0
0
VERTEX
8
MODELSKETCH_VISIBLE
10
15.400527
20
1.777060
70
0
0
VERTEX
8
MODELSKETCH_VISIBLE
10
18.373650
20
0.833065
70
0
0
VERTEX
8
MODELSKETCH_VISIBLE
10
21.469339
20
0.280278
70
0
0
VERTEX
8
MODELSKETCH_VISIBLE
10
24.652191
20
0.138129
70
0
0
VERTEX
8
MODELSKETCH_VISIBLE
10
27.825900
20
0.417998
70
0
0
VERTEX
8
MODELSKETCH_VISIBLE
10
30.894743
20
1.104344
70
0
0
VERTEX
8
MODELSKETCH_VISIBLE
10
33.824190
20
2.176223
70
0
0
VERTEX
8
MODELSKETCH_VISIBLE
10
36.579713
20
3.612689
70
0
0
VERTEX
8
MODELSKETCH_VISIBLE
10
39.126782
20
5.392796
70
0
0
VERTEX
8
MODELSKETCH_VISIBLE
10
41.430868
20
7.495598
70
0
0
VERTEX
8
MODELSKETCH_VISIBLE
10
43.457440
20
9.900150
70
0
0
VERTEX
8
MODELSKETCH_VISIBLE
10
45.171971
20
12.585506
70
0
0
VERTEX
8
MODELSKETCH_VISIBLE
10
46.516452
20
15.473953
70
0
0
VERTEX
8
MODELSKETCH_VISIBLE
10
47.456480
20
18.474822
70
0
0
VERTEX
8
MODELSKETCH_VISIBLE
10
47.992929
20
21.547738
70
0
0
VERTEX
8
MODELSKETCH_VISIBLE
10
48.126675
20
24.652323
70
0
0
VERTEX
8
MODELSKETCH_VISIBLE
10
47.858591
20
27.748203
70
0
0
VERTEX
8
MODELSKETCH_VISIBLE
10
47.189554
20
30.795001
70
0
0
VERTEX
8
MODELSKETCH_VISIBLE
10
46.120437
20
33.752340
70
0
0
VERTEX
8
MODELSKETCH_VISIBLE
10
44.652115
20
36.579845
70
0
0
VERTEX
8
MODELSKETCH_VISIBLE
10
42.822888
20
39.188423
70
0
0
VERTEX
8
MODELSKETCH_VISIBLE
10
40.694073
20
41.502946
70
0
0
VERTEX
8
MODELSKETCH_VISIBLE
10
38.301075
20
43.503983
70
0
0
VERTEX
8
MODELSKETCH_VISIBLE
10
35.679297
20
45.172103
70
0
0
VERTEX
8
MODELSKETCH_VISIBLE
10
32.864145
20
46.487875
70
0
0
VERTEX
8
MODELSKETCH_VISIBLE
10
29.891022
20
47.431871
70
0
0
VERTEX
8
MODELSKETCH_VISIBLE
10
26.795333
20
47.984658
70
0
0
VERTEX
8
MODELSKETCH_VISIBLE
10
23.612481
20
48.126807
70
0
0
VERTEX
8
MODELSKETCH_VISIBLE
10
23.612481
20
48.126807
70
0
0
SEQEND
8
MODELSKETCH_VISIBLE
0
POLYLINE
8
MODELSKETCH_VISIBLE
62
10
70
0
10
0.000000
20
0.000000
66
1
0
VERTEX
8
MODELSKETCH_VISIBLE
10
26.718516
20
14.471617
70
0
0
VERTEX
8
MODELSKETCH_VISIBLE
10
27.205301
20
14.221234
70
0
0
VERTEX
8
MODELSKETCH_VISIBLE
10
27.732642
20
14.121227
70
0
0
VERTEX
8
MODELSKETCH_VISIBLE
10
28.266867
20
14.173122
70
0
0
VERTEX
8
MODELSKETCH_VISIBLE
10
28.774306
20
14.378445
70
0
0
VERTEX
8
MODELSKETCH_VISIBLE
10
29.201859
20
14.720277
70
0
0
VERTEX
8
MODELSKETCH_VISIBLE
10
29.508769
20
15.160613
70
0
0
VERTEX
8
MODELSKETCH_VISIBLE
10
29.679875
20
15.669350
70
0
0
VERTEX
8
MODELSKETCH_VISIBLE
10
29.700014
20
16.216383
70
0
0
SEQEND
8
MODELSKETCH_VISIBLE
0
POLYLINE
8
MODELSKETCH_VISIBLE
62
10
70
0
10
0.000000
20
0.000000
66
1
0
VERTEX
8
MODELSKETCH_VISIBLE
10
35.612500
20
14.471617
70
0
0
VERTEX
8
MODELSKETCH_VISIBLE
10
36.157195
20
15.430872
70
0
0
VERTEX
8
MODELSKETCH_VISIBLE
10
36.358493
20
16.487530
70
0
0
VERTEX
8
MODELSKETCH_VISIBLE
10
36.214035
20
17.553447
70
0
0
VERTEX
8
MODELSKETCH_VISIBLE
10
35.721459
20
18.540479
70
0
0
VERTEX
8
MODELSKETCH_VISIBLE
10
34.934615
20
19.313616
70
0
0
VERTEX
8
MODELSKETCH_VISIBLE
10
33.965306
20
19.779971
70
0
0
VERTEX
8
MODELSKETCH_VISIBLE
10
32.898102
20
19.914588
70
0
0
VERTEX
8
MODELSKETCH_VISIBLE
10
31.817571
20
19.692511
70
0
0
VERTEX
8
MODELSKETCH_VISIBLE
10
30.868035
20
19.131044
70
0
0
VERTEX
8
MODELSKETCH_VISIBLE
10
30.168016
20
18.314331
70
0
0
VERTEX
8
MODELSKETCH_VISIBLE
10
29.763384
20
17.317677
70
0
0
VERTEX
8
MODELSKETCH_VISIBLE
10
29.700014
20
16.216383
70
0
0
SEQEND
8
MODELSKETCH_VISIBLE
0
POLYLINE
8
MODELSKETCH_VISIBLE
62
10
70
0
10
0.000000
20
0.000000
66
1
0
VERTEX
8
MODELSKETCH_VISIBLE
10
9.752313
20
33.070532
70
0
0
VERTEX
8
MODELSKETCH_VISIBLE
10
8.692209
20
33.047673
70
0
0
VERTEX
8
MODELSKETCH_VISIBLE
10
7.727659
20
32.680920
70
0
0
VERTEX
8
MODELSKETCH_VISIBLE
10
6.937845
20
32.016798
70
0
0
VERTEX
8
MODELSKETCH_VISIBLE
10
6.401947
20
31.101836
70
0
0
VERTEX
8
MODELSKETCH_VISIBLE
10
6.207263
20
30.059510
70
0
0
VERTEX
8
MODELSKETCH_VISIBLE
10
6.368753
20
29.040302
70
0
0
VERTEX
8
MODELSKETCH_VISIBLE
10
6.857089
20
28.131241
70
0
0
VERTEX
8
MODELSKETCH_VISIBLE
10
7.642941
20
27.419356
70
0
0
SEQEND
8
MODELSKETCH_VISIBLE
0
POLYLINE
8
MODELSKETCH_VISIBLE
62
170
70
0
10
0.000000
20
0.000000
66
1
0
VERTEX
8
MODELSKETCH_VISIBLE
10
38.781442
20
9.200725
70
0
0
VERTEX
8
MODELSKETCH_VISIBLE
10
37.081576
20
7.678565
70
0
0
VERTEX
8
MODELSKETCH_VISIBLE
10
35.333677
20
10.833734
70
0
0
VERTEX
8
MODELSKETCH_VISIBLE
10
37.033543
20
12.355894
70
0
0
VERTEX
8
MODELSKETCH_VISIBLE
10
37.267152
20
11.934201
70
0
0
VERTEX
8
MODELSKETCH_VISIBLE
10
36.135882
20
10.921198
70
0
0
VERTEX
8
MODELSKETCH_VISIBLE
10
36.603101
20
10.077811
70
0
0
VERTEX
8
MODELSKETCH_VISIBLE
10
37.491534
20
10.873364
70
0
0
VERTEX
8
MODELSKETCH_VISIBLE
10
37.725142
20
10.451670
70
0
0
VERTEX
8
MODELSKETCH_VISIBLE
10
36.836712
20
9.656117
70
0
0
VERTEX
8
MODELSKETCH_VISIBLE
10
37.416564
20
8.609412
70
0
0
VERTEX
8
MODELSKETCH_VISIBLE
10
38.547834
20
9.622418
70
0
0
VERTEX
8
MODELSKETCH_VISIBLE
10
38.781442
20
9.200725
70
0
0
SEQEND
8
MODELSKETCH_VISIBLE
0
POLYLINE
8
MODELSKETCH_VISIBLE
62
170
70
0
10
0.000000
20
0.000000
66
1
0
VERTEX
8
MODELSKETCH_VISIBLE
10
35.502611
20
10.352019
70
0
0
VERTEX
8
MODELSKETCH_VISIBLE
10
34.779987
20
9.843656
70
0
0
VERTEX
8
MODELSKETCH_VISIBLE
10
36.053202
20
6.918228
70
0
0
VERTEX
8
MODELSKETCH_VISIBLE
10
35.438338
20
6.485673
70
0
0
VERTEX
8
MODELSKETCH_VISIBLE
10
34.165125
20
9.411101
70
0
0
VERTEX
8
MODELSKETCH_VISIBLE
10
33.442501
20
8.902734
70
0
0
VERTEX
8
MODELSKETCH_VISIBLE
10
33.246083
20
9.354039
70
0
0
VERTEX
8
MODELSKETCH_VISIBLE
10
35.306189
20
10.803325
70
0
0
VERTEX
8
MODELSKETCH_VISIBLE
10
35.502611
20
10.352019
70
0
0
SEQEND
8
MODELSKETCH_VISIBLE
0
POLYLINE
8
MODELSKETCH_VISIBLE
62
170
70
0
10
0.000000
20
0.000000
66
1
0
VERTEX
8
MODELSKETCH_VISIBLE
10
33.683682
20
5.408444
70
0
0
VERTEX
8
MODELSKETCH_VISIBLE
10
32.434323
20
8.925608
70
0
0
VERTEX
8
MODELSKETCH_VISIBLE
10
33.068153
20
9.289541
70
0
0
VERTEX
8
MODELSKETCH_VISIBLE
10
34.317514
20
5.772376
70
0
0
VERTEX
8
MODELSKETCH_VISIBLE
10
33.683682
20
5.408444
70
0
0
SEQEND
8
MODELSKETCH_VISIBLE
0
POLYLINE
8
MODELSKETCH_VISIBLE
62
170
70
0
10
0.000000
20
0.000000
66
1
0
VERTEX
8
MODELSKETCH_VISIBLE
10
29.577070
20
3.568641
70
0
0
VERTEX
8
MODELSKETCH_VISIBLE
10
26.926531
20
2.949159
70
0
0
VERTEX
8
MODELSKETCH_VISIBLE
10
26.840084
20
3.547035
70
0
0
VERTEX
8
MODELSKETCH_VISIBLE
10
26.841142
20
3.743928
70
0
0
VERTEX
8
MODELSKETCH_VISIBLE
10
26.937540
20
3.841379
70
0
0
VERTEX
8
MODELSKETCH_VISIBLE
10
27.073650
20
3.816991
70
0
0
VERTEX
8
MODELSKETCH_VISIBLE
10
27.146368
20
3.721609
70
0
0
VERTEX
8
MODELSKETCH_VISIBLE
10
27.127767
20
3.595518
70
0
0
VERTEX
8
MODELSKETCH_VISIBLE
10
27.048816
20
3.530242
70
0
0
VERTEX
8
MODELSKETCH_VISIBLE
10
27.087794
20
3.464432
70
0
0
VERTEX
8
MODELSKETCH_VISIBLE
10
27.165595
20
3.435805
70
0
0
VERTEX
8
MODELSKETCH_VISIBLE
10
29.189123
20
3.908744
70
0
0
VERTEX
8
MODELSKETCH_VISIBLE
10
29.295266
20
3.989742
70
0
0
VERTEX
8
MODELSKETCH_VISIBLE
10
29.326804
20
4.128219
70
0
0
VERTEX
8
MODELSKETCH_VISIBLE
10
29.126404
20
5.514207
70
0
0
VERTEX
8
MODELSKETCH_VISIBLE
10
29.036657
20
5.727351
70
0
0
VERTEX
8
MODELSKETCH_VISIBLE
10
28.873931
20
5.782969
70
0
0
VERTEX
8
MODELSKETCH_VISIBLE
10
27.042781
20
5.354992
70
0
0
VERTEX
8
MODELSKETCH_VISIBLE
10
26.968332
20
5.309496
70
0
0
VERTEX
8
MODELSKETCH_VISIBLE
10
26.954071
20
5.306132
70
0
0
VERTEX
8
MODELSKETCH_VISIBLE
10
27.022127
20
5.293955
70
0
0
VERTEX
8
MODELSKETCH_VISIBLE
10
27.085101
20
5.215025
70
0
0
VERTEX
8
MODELSKETCH_VISIBLE
10
27.070443
20
5.061757
70
0
0
VERTEX
8
MODELSKETCH_VISIBLE
10
26.971425
20
4.982428
70
0
0
VERTEX
8
MODELSKETCH_VISIBLE
10
26.846947
20
5.028250
70
0
0
VERTEX
8
MODELSKETCH_VISIBLE
10
26.757933
20
5.185379
70
0
0
VERTEX
8
MODELSKETCH_VISIBLE
10
26.552291
20
6.607599
70
0
0
VERTEX
8
MODELSKETCH_VISIBLE
10
26.636011
20
6.945573
70
0
0
VERTEX
8
MODELSKETCH_VISIBLE
10
26.911111
20
7.131611
70
0
0
VERTEX
8
MODELSKETCH_VISIBLE
10
29.497524
20
7.736107
70
0
0
VERTEX
8
MODELSKETCH_VISIBLE
10
29.583971
20
7.138231
70
0
0
VERTEX
8
MODELSKETCH_VISIBLE
10
29.581590
20
6.950397
70
0
0
VERTEX
8
MODELSKETCH_VISIBLE
10
29.492317
20
6.854614
70
0
0
VERTEX
8
MODELSKETCH_VISIBLE
10
29.357514
20
6.869920
70
0
0
VERTEX
8
MODELSKETCH_VISIBLE
10
29.276361
20
6.972696
70
0
0
VERTEX
8
MODELSKETCH_VISIBLE
10
29.323460
20
7.105447
70
0
0
VERTEX
8
MODELSKETCH_VISIBLE
10
29.416662
20
7.174056
70
0
0
VERTEX
8
MODELSKETCH_VISIBLE
10
29.386118
20
7.232470
70
0
0
VERTEX
8
MODELSKETCH_VISIBLE
10
29.307008
20
7.270169
70
0
0
VERTEX
8
MODELSKETCH_VISIBLE
10
27.397481
20
6.823875
70
0
0
VERTEX
8
MODELSKETCH_VISIBLE
10
27.278397
20
6.730491
70
0
0
VERTEX
8
MODELSKETCH_VISIBLE
10
27.253976
20
6.593676
70
0
0
VERTEX
8
MODELSKETCH_VISIBLE
10
27.361381
20
5.850858
70
0
0
VERTEX
8
MODELSKETCH_VISIBLE
10
29.128407
20
6.263850
70
0
0
VERTEX
8
MODELSKETCH_VISIBLE
10
29.549678
20
6.203105
70
0
0
VERTEX
8
MODELSKETCH_VISIBLE
10
29.771190
20
5.842822
70
0
0
VERTEX
8
MODELSKETCH_VISIBLE
10
30.001716
20
4.248487
70
0
0
VERTEX
8
MODELSKETCH_VISIBLE
10
29.923971
20
3.818263
70
0
0
VERTEX
8
MODELSKETCH_VISIBLE
10
29.577044
20
3.568611
70
0
0
VERTEX
8
MODELSKETCH_VISIBLE
10
29.577070
20
3.568641
70
0
0
SEQEND
8
MODELSKETCH_VISIBLE
0
POLYLINE
8
MODELSKETCH_VISIBLE
62
170
70
0
10
0.000000
20
0.000000
66
1
0
VERTEX
8
MODELSKETCH_VISIBLE
10
24.095548
20
2.803665
70
0
0
VERTEX
8
MODELSKETCH_VISIBLE
10
23.884393
20
2.882050
70
0
0
VERTEX
8
MODELSKETCH_VISIBLE
10
23.780057
20
3.100903
70
0
0
VERTEX
8
MODELSKETCH_VISIBLE
10
23.835688
20
3.277119
70
0
0
VERTEX
8
MODELSKETCH_VISIBLE
10
23.957851
20
3.353428
70
0
0
VERTEX
8
MODELSKETCH_VISIBLE
10
24.067235
20
3.300498
70
0
0
VERTEX
8
MODELSKETCH_VISIBLE
10
24.104793
20
3.199972
70
0
0
VERTEX
8
MODELSKETCH_VISIBLE
10
24.091035
20
3.144404
70
0
0
VERTEX
8
MODELSKETCH_VISIBLE
10
24.083785
20
3.144250
70
0
0
VERTEX
8
MODELSKETCH_VISIBLE
10
24.191581
20
3.211039
70
0
0
VERTEX
8
MODELSKETCH_VISIBLE
10
24.254579
20
3.378203
70
0
0
VERTEX
8
MODELSKETCH_VISIBLE
10
24.220437
20
5.956783
70
0
0
VERTEX
8
MODELSKETCH_VISIBLE
10
23.662688
20
5.944841
70
0
0
VERTEX
8
MODELSKETCH_VISIBLE
10
23.654883
20
6.534230
70
0
0
VERTEX
8
MODELSKETCH_VISIBLE
10
23.725854
20
6.646290
70
0
0
VERTEX
8
MODELSKETCH_VISIBLE
10
23.826531
20
6.703718
70
0
0
VERTEX
8
MODELSKETCH_VISIBLE
10
23.966353
20
6.540897
70
0
0
VERTEX
8
MODELSKETCH_VISIBLE
10
23.860017
20
6.363598
70
0
0
VERTEX
8
MODELSKETCH_VISIBLE
10
23.860281
20
6.335981
70
0
0
VERTEX
8
MODELSKETCH_VISIBLE
10
24.198651
20
6.499824
70
0
0
VERTEX
8
MODELSKETCH_VISIBLE
10
24.359642
20
6.927014
70
0
0
VERTEX
8
MODELSKETCH_VISIBLE
10
24.895658
20
6.938485
70
0
0
VERTEX
8
MODELSKETCH_VISIBLE
10
24.942606
20
3.392936
70
0
0
VERTEX
8
MODELSKETCH_VISIBLE
10
24.995504
20
3.228255
70
0
0
VERTEX
8
MODELSKETCH_VISIBLE
10
25.047063
20
3.164877
70
0
0
VERTEX
8
MODELSKETCH_VISIBLE
10
25.098133
20
3.138336
70
0
0
VERTEX
8
MODELSKETCH_VISIBLE
10
25.082549
20
3.220909
70
0
0
VERTEX
8
MODELSKETCH_VISIBLE
10
25.124668
20
3.323143
70
0
0
VERTEX
8
MODELSKETCH_VISIBLE
10
25.218100
20
3.380413
70
0
0
VERTEX
8
MODELSKETCH_VISIBLE
10
25.356580
20
3.318894
70
0
0
VERTEX
8
MODELSKETCH_VISIBLE
10
25.416357
20
3.181995
70
0
0
VERTEX
8
MODELSKETCH_VISIBLE
10
25.325484
20
2.931331
70
0
0
VERTEX
8
MODELSKETCH_VISIBLE
10
25.116765
20
2.825534
70
0
0
VERTEX
8
MODELSKETCH_VISIBLE
10
24.095435
20
2.803669
70
0
0
VERTEX
8
MODELSKETCH_VISIBLE
10
24.095548
20
2.803665
70
0
0
SEQEND
8
MODELSKETCH_VISIBLE
0
POLYLINE
8
MODELSKETCH_VISIBLE
62
170
70
0
10
0.000000
20
0.000000
66
1
0
VERTEX
8
MODELSKETCH_VISIBLE
10
20.146946
20
3.226035
70
0
0
VERTEX
8
MODELSKETCH_VISIBLE
10
19.948765
20
3.347407
70
0
0
VERTEX
8
MODELSKETCH_VISIBLE
10
19.874087
20
3.585057
70
0
0
VERTEX
8
MODELSKETCH_VISIBLE
10
19.951705
20
3.747279
70
0
0
VERTEX
8
MODELSKETCH_VISIBLE
10
20.082060
20
3.797071
70
0
0
VERTEX
8
MODELSKETCH_VISIBLE
10
20.183130
20
3.722043
70
0
0
VERTEX
8
MODELSKETCH_VISIBLE
10
20.207208
20
3.615042
70
0
0
VERTEX
8
MODELSKETCH_VISIBLE
10
20.186464
20
3.563101
70
0
0
VERTEX
8
MODELSKETCH_VISIBLE
10
20.179294
20
3.564446
70
0
0
VERTEX
8
MODELSKETCH_VISIBLE
10
20.294253
20
3.607843
70
0
0
VERTEX
8
MODELSKETCH_VISIBLE
10
20.377967
20
3.759597
70
0
0
VERTEX
8
MODELSKETCH_VISIBLE
10
20.677054
20
6.310355
70
0
0
VERTEX
8
MODELSKETCH_VISIBLE
10
20.125327
20
6.414924
70
0
0
VERTEX
8
MODELSKETCH_VISIBLE
10
20.193690
20
6.997955
70
0
0
VERTEX
8
MODELSKETCH_VISIBLE
10
20.278161
20
7.093694
70
0
0
VERTEX
8
MODELSKETCH_VISIBLE
10
20.384883
20
7.129341
70
0
0
VERTEX
8
MODELSKETCH_VISIBLE
10
20.501797
20
6.939558
70
0
0
VERTEX
8
MODELSKETCH_VISIBLE
10
20.374022
20
6.786842
70
0
0
VERTEX
8
MODELSKETCH_VISIBLE
10
20.370820
20
6.759528
70
0
0
VERTEX
8
MODELSKETCH_VISIBLE
10
20.725748
20
6.850567
70
0
0
VERTEX
8
MODELSKETCH_VISIBLE
10
20.939687
20
7.238383
70
0
0
VERTEX
8
MODELSKETCH_VISIBLE
10
21.469919
20
7.137888
70
0
0
VERTEX
8
MODELSKETCH_VISIBLE
10
21.058675
20
3.630596
70
0
0
VERTEX
8
MODELSKETCH_VISIBLE
10
21.089605
20
3.457112
70
0
0
VERTEX
8
MODELSKETCH_VISIBLE
10
21.132285
20
3.383837
70
0
0
VERTEX
8
MODELSKETCH_VISIBLE
10
21.179238
20
3.347000
70
0
0
VERTEX
8
MODELSKETCH_VISIBLE
10
21.174528
20
3.431705
70
0
0
VERTEX
8
MODELSKETCH_VISIBLE
10
21.229270
20
3.523767
70
0
0
VERTEX
8
MODELSKETCH_VISIBLE
10
21.328828
20
3.560769
70
0
0
VERTEX
8
MODELSKETCH_VISIBLE
10
21.457492
20
3.471197
70
0
0
VERTEX
8
MODELSKETCH_VISIBLE
10
21.498791
20
3.323685
70
0
0
VERTEX
8
MODELSKETCH_VISIBLE
10
21.376802
20
3.095376
70
0
0
VERTEX
8
MODELSKETCH_VISIBLE
10
21.157259
20
3.034551
70
0
0
VERTEX
8
MODELSKETCH_VISIBLE
10
20.146949
20
3.226035
70
0
0
VERTEX
8
MODELSKETCH_VISIBLE
10
20.146946
20
3.226035
70
0
0
SEQEND
8
MODELSKETCH_VISIBLE
0
POLYLINE
8
MODELSKETCH_VISIBLE
62
170
70
0
10
0.000000
20
0.000000
66
1
0
VERTEX
8
MODELSKETCH_VISIBLE
10
16.836351
20
4.307213
70
0
0
VERTEX
8
MODELSKETCH_VISIBLE
10
14.883834
20
5.215718
70
0
0
VERTEX
8
MODELSKETCH_VISIBLE
10
15.927071
20
8.839843
70
0
0
VERTEX
8
MODELSKETCH_VISIBLE
10
17.879588
20
7.931339
70
0
0
VERTEX
8
MODELSKETCH_VISIBLE
10
17.740158
20
7.446966
70
0
0
VERTEX
8
MODELSKETCH_VISIBLE
10
16.440748
20
8.051583
70
0
0
VERTEX
8
MODELSKETCH_VISIBLE
10
16.161887
20
7.082842
70
0
0
VERTEX
8
MODELSKETCH_VISIBLE
10
17.182367
20
6.608016
70
0
0
VERTEX
8
MODELSKETCH_VISIBLE
10
17.042936
20
6.123644
70
0
0
VERTEX
8
MODELSKETCH_VISIBLE
10
16.022457
20
6.598473
70
0
0
VERTEX
8
MODELSKETCH_VISIBLE
10
15.676371
20
5.396199
70
0
0
VERTEX
8
MODELSKETCH_VISIBLE
10
16.975782
20
4.791582
70
0
0
VERTEX
8
MODELSKETCH_VISIBLE
10
16.836351
20
4.307213
70
0
0
SEQEND
8
MODELSKETCH_VISIBLE
0
POLYLINE
8
MODELSKETCH_VISIBLE
62
170
70
0
10
0.000000
20
0.000000
66
1
0
VERTEX
8
MODELSKETCH_VISIBLE
10
13.583384
20
9.533673
70
0
0
VERTEX
8
MODELSKETCH_VISIBLE
10
13.751316
20
9.756764
70
0
0
VERTEX
8
MODELSKETCH_VISIBLE
10
13.994103
20
9.840097
70
0
0
VERTEX
8
MODELSKETCH_VISIBLE
10
14.282517
20
9.812379
70
0
0
VERTEX
8
MODELSKETCH_VISIBLE
10
14.590649
20
9.669418
70
0
0
VERTEX
8
MODELSKETCH_VISIBLE
10
15.025454
20
9.395142
70
0
0
VERTEX
8
MODELSKETCH_VISIBLE
10
15.294898
20
9.173767
70
0
0
VERTEX
8
MODELSKETCH_VISIBLE
10
15.486717
20
8.898539
70
0
0
VERTEX
8
MODELSKETCH_VISIBLE
10
15.581390
20
8.602334
70
0
0
VERTEX
8
MODELSKETCH_VISIBLE
10
15.543251
20
8.297374
70
0
0
VERTEX
8
MODELSKETCH_VISIBLE
10
15.362939
20
7.835331
70
0
0
VERTEX
8
MODELSKETCH_VISIBLE
10
14.739935
20
8.228320
70
0
0
VERTEX
8
MODELSKETCH_VISIBLE
10
14.891268
20
8.616109
70
0
0
VERTEX
8
MODELSKETCH_VISIBLE
10
14.887498
20
8.834407
70
0
0
VERTEX
8
MODELSKETCH_VISIBLE
10
14.721838
20
9.010879
70
0
0
VERTEX
8
MODELSKETCH_VISIBLE
10
14.533639
20
9.129593
70
0
0
VERTEX
8
MODELSKETCH_VISIBLE
10
14.316411
20
9.194650
70
0
0
VERTEX
8
MODELSKETCH_VISIBLE
10
14.177408
20
9.066413
70
0
0
VERTEX
8
MODELSKETCH_VISIBLE
10
13.369224
20
6.995462
70
0
0
VERTEX
8
MODELSKETCH_VISIBLE
10
13.372992
20
6.777165
70
0
0
VERTEX
8
MODELSKETCH_VISIBLE
10
13.545142
20
6.596599
70
0
0
VERTEX
8
MODELSKETCH_VISIBLE
10
13.733341
20
6.477885
70
0
0
VERTEX
8
MODELSKETCH_VISIBLE
10
13.944079
20
6.416922
70
0
0
VERTEX
8
MODELSKETCH_VISIBLE
10
14.083082
20
6.545159
70
0
0
VERTEX
8
MODELSKETCH_VISIBLE
10
14.234415
20
6.932948
70
0
0
VERTEX
8
MODELSKETCH_VISIBLE
10
14.857419
20
6.539955
70
0
0
VERTEX
8
MODELSKETCH_VISIBLE
10
14.677107
20
6.077912
70
0
0
VERTEX
8
MODELSKETCH_VISIBLE
10
14.509176
20
5.854821
70
0
0
VERTEX
8
MODELSKETCH_VISIBLE
10
14.263169
20
5.763240
70
0
0
VERTEX
8
MODELSKETCH_VISIBLE
10
13.977975
20
5.799193
70
0
0
VERTEX
8
MODELSKETCH_VISIBLE
10
13.676332
20
5.938060
70
0
0
VERTEX
8
MODELSKETCH_VISIBLE
10
13.241527
20
6.212335
70
0
0
VERTEX
8
MODELSKETCH_VISIBLE
10
12.965593
20
6.437805
70
0
0
VERTEX
8
MODELSKETCH_VISIBLE
10
12.770555
20
6.704781
70
0
0
VERTEX
8
MODELSKETCH_VISIBLE
10
12.679101
20
7.009237
70
0
0
VERTEX
8
MODELSKETCH_VISIBLE
10
12.717240
20
7.314198
70
0
0
VERTEX
8
MODELSKETCH_VISIBLE
10
13.583384
20
9.533673
70
0
0
SEQEND
8
MODELSKETCH_VISIBLE
0
POLYLINE
8
MODELSKETCH_VISIBLE
62
170
70
0
10
0.000000
20
0.000000
66
1
0
VERTEX
8
MODELSKETCH_VISIBLE
10
12.028965
20
7.024459
70
0
0
VERTEX
8
MODELSKETCH_VISIBLE
10
10.278839
20
8.451586
70
0
0
VERTEX
8
MODELSKETCH_VISIBLE
10
11.917613
20
11.700046
70
0
0
VERTEX
8
MODELSKETCH_VISIBLE
10
13.667739
20
10.272918
70
0
0
VERTEX
8
MODELSKETCH_VISIBLE
10
13.448714
20
9.838755
70
0
0
VERTEX
8
MODELSKETCH_VISIBLE
10
12.283997
20
10.788517
70
0
0
VERTEX
8
MODELSKETCH_VISIBLE
10
11.845947
20
9.920194
70
0
0
VERTEX
8
MODELSKETCH_VISIBLE
10
12.760647
20
9.174308
70
0
0
VERTEX
8
MODELSKETCH_VISIBLE
10
12.541622
20
8.740145
70
0
0
VERTEX
8
MODELSKETCH_VISIBLE
10
11.626922
20
9.486031
70
0
0
VERTEX
8
MODELSKETCH_VISIBLE
10
11.083272
20
8.408381
70
0
0
VERTEX
8
MODELSKETCH_VISIBLE
10
12.247989
20
7.458619
70
0
0
VERTEX
8
MODELSKETCH_VISIBLE
10
12.028965
20
7.024459
70
0
0
SEQEND
8
MODELSKETCH_VISIBLE
 0 
ENDSEC
 0 
EOF